<?xml version="1.0" encoding="utf-8"?>
<!-- Generator: Adobe Illustrator 19.0.0, SVG Export Plug-In . SVG Version: 6.00 Build 0)  -->
<svg version="1.1" xmlns="http://www.w3.org/2000/svg" xmlns:xlink="http://www.w3.org/1999/xlink" x="0px" y="0px"
	 viewBox="0 0 80 80" style="enable-background:new 0 0 80 80;" xml:space="preserve">
<style type="text/css">
	.st0{display:none;}
	.st1{display:inline;}
	.st2{fill-rule:evenodd;clip-rule:evenodd;}
</style>
<g id="Layer_1" class="st0">
	<g id="XMLID_2_" class="st1">
		<path id="XMLID_176_" d="M72.4,21.3c0-1.1,0-2.3,0-3.4c0-0.3,0-0.6-0.1-0.9c-0.3-1.2-1-2.2-2.1-2.8c-0.6-0.3-1.2-0.5-1.8-0.6
			c-0.1,0-0.2,0-0.4,0c-0.2,0-0.4,0.2-0.4,0.4c0,0.2,0,0.4,0.2,0.5c0.1,0.1,0.2,0.1,0.3,0.1c0.3,0,0.5,0,0.8,0.1
			c1.6,0.4,2.6,1.8,2.6,3.2c0,0.1,0,0.3,0,0.4c0,2.2,0,4.4,0,6.5c0,0.1,0,0.2,0,0.3c0,0.1,0,0.2,0.1,0.3c0.1,0.2,0.4,0.2,0.5,0.2
			c0.2-0.1,0.4-0.2,0.4-0.4c0-0.1,0-0.2,0-0.3C72.4,23.6,72.4,22.5,72.4,21.3z"/>
		<path id="XMLID_161_" d="M34.2,4c0.1,0.1,0.2,0.1,0.3,0.2c2.7,1.6,5.4,3.1,8.2,4.7C42.8,9,42.9,9,43.1,9.1
			c0.1,0.1,0.1,0.1,0.2,0.2c0.1,0.1,0.1,0.3,0,0.4c0,0.1-0.1,0.2-0.2,0.3c-0.8,1.4-1.7,2.9-2.5,4.3c-0.1,0.1-0.2,0.3-0.3,0.4
			c0,0.1-0.1,0.1-0.1,0.2c-0.2,0.3-0.4,0.3-0.7,0.2c-0.1,0-0.1-0.1-0.2-0.1c-0.7-0.4-1.4-0.8-2.1-1.2c-0.1,0-0.1-0.1-0.2-0.1
			c0,0-0.1,0-0.1,0c0,0,0,0.1-0.1,0.1c-0.6,1-1.1,1.9-1.7,2.9c0,0,0,0.1,0,0.1c0,0,0,0.1,0,0.1c0,0,0.1,0,0.1,0c0.1,0,0.3,0,0.4,0
			c9.7,0,19.3,0,29,0c0.3,0,0.5,0,0.8,0c1.2,0.2,2.6,1,3.2,2.7c0.1,0.3,0.2,0.6,0.2,1c0,0.2,0,0.5,0,0.7c0,7,0,13.9,0,20.9
			c0,0.1,0,0.2,0,0.4c0,0.1,0,0.2,0.1,0.3c0.1,0.1,0.2,0.2,0.3,0.3c3.1,3.1,6.2,6.2,9.3,9.3c0.1,0.1,0.2,0.2,0.3,0.3
			c0.1,0.1,0,0.2,0.1,0.2c0,0.3,0,0.6,0,0.9c-0.1,0.1-0.1,0.2-0.1,0.2c-0.1,0.1-0.2,0.2-0.3,0.3c-0.7,0.7-1.5,1.5-2.2,2.2
			c-0.1,0.1-0.2,0.2-0.2,0.2c-0.2,0.2-0.4,0.3-0.7,0.3c-0.5,0.1-0.9,0-1.2-0.3c-0.1-0.1-0.2-0.1-0.2-0.2c-1.6-1.6-3.1-3.1-4.7-4.7
			c-0.1-0.1-0.2-0.2-0.3-0.2c0,0,0,0,0,0c0,0,0,0,0,0c0,0.1,0,0.1,0,0.2c0,0.5,0,1,0,1.4c0,2.3,0,4.5,0,6.8c0,0.2,0,0.4,0,0.6
			c-0.1,1.1-0.6,2.1-1.5,2.8c-0.6,0.5-1.3,0.7-2,0.8c-0.1,0-0.2,0-0.3,0c-0.2,0-0.3,0-0.5,0c-6.3,0-12.5,0-18.8,0
			c-0.1,0-0.3,0-0.4,0c0,0-0.1,0.1,0,0.1c0,0.1,0,0.1,0.1,0.2c0.7,1.4,1.4,2.7,2.2,4.1c0,0.1,0.1,0.1,0.1,0.2c0,0,0.1,0,0.1,0.1
			c0.1,0,0.1,0,0.2,0c0.3,0,0.5,0,0.8,0c2.4,0,4.8,0,7.2,0c0.1,0,0.3,0,0.4,0c0.2,0,0.4,0.2,0.4,0.4c0,0.1,0,0.1,0,0.2
			c0,0.8,0,1.6,0,2.5c0,0.1,0,0.1,0,0.2c0,0.2-0.2,0.4-0.4,0.5c-0.1,0-0.1,0-0.2,0c-0.1,0-0.2,0-0.3,0c-12.3,0-24.6,0-36.9,0
			c-0.1,0-0.3,0-0.4,0c-0.3,0-0.4-0.2-0.5-0.4c0-0.1,0-0.1,0-0.2c0-0.8,0-1.7,0-2.5c0-0.1,0-0.1,0-0.2c0-0.2,0.2-0.4,0.4-0.4
			c0.1,0,0.2,0,0.4,0c2.3,0,4.5,0,6.8,0c0.4,0,0.8,0,1.2,0c0.1,0,0.1,0,0.2,0c0,0,0.1,0,0.1-0.1c0,0,0.1-0.1,0.1-0.2
			c0.7-1.4,1.4-2.7,2.1-4.1c0-0.1,0.1-0.2,0.1-0.2c0,0,0,0,0-0.1c0,0-0.1,0-0.1,0c-0.1,0-0.3,0-0.4,0c-6.2,0-12.5,0-18.7,0
			c-0.1,0-0.3,0-0.4,0c-1.2,0-2.1-0.5-2.9-1.3C6.4,62.5,6.1,61.8,6,61c0-0.1,0-0.2,0-0.3c0-0.2,0-0.4,0-0.6c0-13,0-26,0-39
			c0-0.1,0-0.3,0-0.4c0-1.1,0.5-2,1.3-2.8c0.5-0.5,1.2-0.8,1.9-1c0.3-0.1,0.5-0.1,0.8-0.1c0.1,0,0.2,0,0.4,0c6.6,0,13.2,0,19.8,0
			c0.1,0,0.3,0,0.4,0c0.1-0.1,0.1-0.2,0.2-0.3c0.5-0.9,1.1-1.9,1.6-2.8c0.3-0.6,0.7-1.2,1-1.8c0.1-0.1,0.1-0.2,0.2-0.3
			c0,0,0-0.1,0-0.1c-0.1-0.1-0.2-0.1-0.2-0.2c-0.7-0.4-1.4-0.8-2.1-1.2c-0.1-0.1-0.2-0.1-0.3-0.2c-0.2-0.1-0.3-0.4-0.2-0.6
			c0-0.1,0.1-0.1,0.1-0.2c0.9-1.6,1.8-3.2,2.8-4.8c0.1-0.2,0.2-0.3,0.4-0.4C34,4,34.1,4,34.2,4z M32.5,21.4
			c-0.1,0.1-0.2,0.2-0.2,0.4c-1.2,2-2.3,4-3.5,6c-0.1,0.1-0.1,0.2-0.2,0.3c-0.2,0.2-0.4,0.3-0.6,0.2c-0.1,0-0.1-0.1-0.2-0.1
			c-0.8-0.5-1.6-0.9-2.3-1.4c-0.1,0-0.1-0.1-0.2-0.1c-0.2-0.1-0.3-0.4-0.2-0.6c0.1-0.1,0.1-0.2,0.2-0.3c0.8-1.3,1.5-2.6,2.3-4
			c0.1-0.1,0.1-0.2,0.2-0.3c0,0,0-0.1-0.1-0.1c-0.1,0-0.2,0-0.3,0c-5.5,0-11,0-16.6,0c-0.1,0-0.2,0-0.3,0c-0.1,0-0.1,0-0.1,0.1
			c0,0.1,0,0.3,0,0.4c0,10.1,0,20.2,0,30.2c0,0.1,0,0.2,0,0.3c0,0,0,0.1,0,0.1c0,0.1,0,0.1,0.1,0.1c0.1,0,0.1,0,0.2,0
			c0.8,0,1.7,0,2.5,0c0.3,0,0.3,0,0.3-0.3c0-1.1,0-2.3,0-3.4c0-7,0-14.1,0-21.1c0-0.1,0-0.3,0-0.4c0-0.1,0-0.1,0.1-0.2
			c0.1-0.1,0.2-0.2,0.4-0.2c0.1,0,0.2,0,0.3,0c1.9,0,3.9,0,5.8,0c0.1,0,0.1,0,0.2,0c0.3,0,0.5,0.2,0.5,0.5c0,0,0,0.1,0,0.1
			c0,0.1,0,0.2,0,0.4c0,8.1,0,16.2,0,24.3c0,0.5,0,0.4,0.4,0.4c14.3,0,28.5,0,42.8,0c0.1,0,0.2,0,0.3,0c0.1,0,0.2,0,0.2-0.2
			c0-0.1,0-0.2,0-0.3c0-1.6,0-3.2,0-4.9c0-0.1,0-0.1,0-0.2c0-0.1,0-0.2-0.1-0.3c-0.1-0.1-0.1-0.1-0.2-0.2
			C59,41.6,53.9,36.5,48.8,31.4c-0.3-0.3-0.3-0.2-0.4-0.7c-0.5-1.3-1-2.7-1.4-4c-0.2-0.4-0.3-0.9-0.5-1.3c0-0.1-0.1-0.2-0.1-0.3
			c0-0.4,0.3-0.6,0.6-0.5c0.1,0,0.2,0.1,0.3,0.1c1.7,0.6,3.5,1.2,5.2,1.8c0.5,0.2,0.4,0.1,0.8,0.5c3.6,3.6,7.1,7.1,10.7,10.7
			c0.1,0.1,0.2,0.2,0.3,0.3c0,0,0,0,0.1,0c0,0,0,0,0-0.1c0-0.1,0-0.2,0-0.4c0-5.2,0-10.5,0-15.7c0-0.1,0-0.2,0-0.3c0,0,0-0.1,0-0.1
			c0-0.1-0.1-0.1-0.1-0.1c-0.1,0-0.3,0-0.4,0c-10.3,0-20.5,0-30.8,0c-0.1,0-0.2,0-0.3,0C32.6,21.4,32.6,21.4,32.5,21.4z M37.4,63.4
			c9.1,0,18.1,0,27.2,0c0.2,0,0.3,0,0.5,0c0.4,0,0.9-0.1,1.2-0.3c1-0.5,1.5-1.3,1.6-2.5c0-0.1,0-0.3,0-0.4c0-3.1,0-6.2,0-9.3
			c0-0.1,0-0.2,0-0.3c0-0.1,0-0.1-0.1-0.2c0,0,0,0,0-0.1c-0.7-0.7-1.5-1.5-2.2-2.2c0,0,0,0,0,0c0,0-0.1-0.1-0.1,0c0,0,0,0-0.1,0.1
			c0,0.1,0,0.2,0,0.3c0,1.3,0,2.6,0,3.8c0,0.2,0,0.5,0,0.7c0,0.1,0,0.2,0,0.3c0,0.2-0.2,0.4-0.4,0.4c-0.2,0-0.3,0-0.5,0
			c-14.5,0-29,0-43.4,0c-0.1,0-0.2,0-0.4,0c-0.1,0-0.1,0-0.2,0c-0.2,0-0.3,0-0.5,0c-0.6,0-1.3,0-1.9,0c-1.3,0-2.5,0-3.8,0
			c-0.1,0-0.3,0-0.4,0c-0.2,0-0.3,0-0.5,0c-1.1,0-2.2,0-3.3,0c-0.1,0-0.2,0-0.3,0c-0.3,0-0.5-0.2-0.5-0.5c0-0.1,0-0.3,0-0.4
			c0-10.5,0-21.1,0-31.6c0-0.1,0-0.2,0-0.3c0-0.1,0-0.1,0-0.2c0-0.2,0.2-0.4,0.4-0.4c0.1,0,0.3,0,0.4,0c5.9,0,11.8,0,17.7,0
			c0.1,0,0.2,0,0.4,0c0,0,0.1,0,0.1,0c0,0,0.1,0,0.1-0.1c0,0,0.1-0.1,0.1-0.1c0.4-0.7,0.8-1.4,1.2-2.1c0,0,0-0.1,0.1-0.1
			c0,0,0-0.1,0-0.1c-0.1,0-0.3,0-0.4,0c-6.4,0-12.8,0-19.2,0c-0.1,0-0.2,0-0.3,0c-0.3,0-0.6,0-0.9,0.1c-1.3,0.4-2,1.6-2,2.7
			c0,0.1,0,0.2,0,0.4c0,13,0,26.1,0,39.1c0,0.1,0,0.2,0,0.4c0,0.3,0,0.5,0.1,0.7c0.4,1.3,1.5,2.1,2.8,2.1c0.2,0,0.3,0,0.5,0
			C19.4,63.4,28.4,63.4,37.4,63.4z M34.5,17.9c0,0-0.1,0.1-0.1,0.1c-0.4,0.7-0.8,1.4-1.2,2.1c0,0,0,0.1,0,0.1c0,0,0,0.1,0.1,0.1
			c0.1,0,0.3,0,0.4,0c10.3,0,20.5,0,30.8,0c0.1,0,0.2,0,0.4,0c0.1,0,0.1,0,0.2,0c0.1,0,0.2,0,0.2,0.1c0.1,0.1,0.2,0.2,0.2,0.3
			c0,0.2,0,0.3,0,0.5c0,5.8,0,11.6,0,17.3c0,0.1,0,0.2,0,0.4c0,0.1,0,0.1,0,0.2c0.1,0.1,0.1,0.1,0.2,0.2c0.7,0.7,1.4,1.4,2,2
			c0.1,0.1,0.1,0.1,0.2,0.1c0,0,0,0,0.1,0c0,0,0,0,0,0c0-0.1,0-0.2,0-0.4c0-6.7,0-13.4,0-20.1c0-0.1,0-0.3,0-0.4
			c0-0.2,0-0.4-0.1-0.6c-0.4-1.3-1.4-2-2.3-2.1c-0.3,0-0.5,0-0.8,0c-9.9,0-19.8,0-29.7,0c-0.1,0-0.2,0-0.3,0
			C34.6,17.9,34.6,17.9,34.5,17.9z M19.7,40.4c0-3.9,0-7.9,0-11.8c0-0.1,0-0.2,0-0.4c0,0,0-0.1,0-0.1c0,0,0,0,0,0
			c-0.1,0-0.1,0-0.2,0c-0.6,0-1.2,0-1.8,0c-0.9,0-1.8,0-2.6,0c-0.1,0-0.2,0-0.3,0c0,0-0.1,0-0.1,0.1c0,0,0,0.1,0,0.1
			c0,0.7,0,1.4,0,2.1c0,0,0,0.1,0,0.1c0,0,0,0,0,0c0,0,0.1,0,0.1,0c0.2,0,0.5,0,0.7,0c0.1,0,0.2,0,0.3,0c0.1,0,0.1,0,0.2,0.1
			c0.2,0.1,0.2,0.3,0.2,0.5c0,0.2-0.1,0.3-0.3,0.4c-0.1,0-0.2,0-0.2,0c-0.3,0-0.5,0-0.8,0c-0.1,0-0.1,0-0.2,0c0,0-0.1,0-0.1,0.1
			c0,0,0,0.1,0,0.1c0,0.6,0,1.2,0,1.8c0,0,0,0.1,0,0.1c0,0,0,0.1,0.1,0.1c0.1,0,0.2,0,0.3,0c0.5,0,1.1,0,1.6,0c0.1,0,0.2,0,0.3,0
			c0.3,0,0.5,0.2,0.5,0.5c0,0.3-0.2,0.5-0.5,0.5c-0.1,0-0.2,0-0.3,0c-0.5,0-1.1,0-1.6,0c-0.1,0-0.2,0-0.3,0c0,0-0.1,0-0.1,0.1
			c0,0,0,0,0,0.1c0,0.6,0,1.3,0,1.9c0,0,0,0,0,0.1c0,0,0,0,0,0c0,0,0.1,0,0.1,0c0.2,0,0.5,0,0.7,0c0.1,0,0.2,0,0.3,0
			c0.1,0,0.2,0.1,0.2,0.1c0.2,0.1,0.2,0.3,0.1,0.5c-0.1,0.2-0.2,0.3-0.4,0.3c-0.1,0-0.2,0-0.3,0c-0.2,0-0.5,0-0.7,0
			c-0.1,0-0.1,0-0.2,0c0,0-0.1,0-0.1,0.1c0,0,0,0.1,0,0.1c0,0.6,0,1.2,0,1.8c0,0,0,0.1,0,0.1c0,0,0,0.1,0.1,0.1c0.1,0,0.1,0,0.2,0
			c0.4,0,0.8,0,1.3,0c0.2,0,0.4,0,0.6,0c0.1,0,0.1,0,0.2,0c0.2,0.1,0.4,0.3,0.3,0.6c0,0.2-0.2,0.4-0.5,0.4c-0.1,0-0.2,0-0.3,0
			c-0.5,0-1,0-1.6,0c-0.1,0-0.2,0-0.3,0c-0.1,0-0.1,0.1-0.1,0.1c0,0,0,0,0,0.1c0,0.6,0,1.2,0,1.8c0,0,0,0.1,0,0.1c0,0,0,0.1,0.1,0.1
			c0,0,0.1,0,0.1,0c0.2,0,0.5,0,0.7,0c0.1,0,0.2,0,0.3,0c0.3,0.1,0.4,0.3,0.4,0.5c0,0.2-0.2,0.4-0.4,0.4c-0.1,0-0.2,0-0.3,0
			c-0.2,0-0.5,0-0.7,0c0,0-0.1,0-0.1,0c0,0,0,0-0.1,0c0,0,0,0.1,0,0.1c0,0.6,0,1.3,0,1.9c0,0,0,0,0,0c0,0.1,0.1,0.1,0.1,0.1
			c0.1,0,0.2,0,0.3,0c0.5,0,1,0,1.6,0c0.1,0,0.2,0,0.3,0c0.1,0,0.1,0,0.2,0c0.2,0.1,0.3,0.3,0.3,0.5c0,0.2-0.1,0.3-0.3,0.4
			c-0.1,0-0.1,0-0.2,0.1c-0.1,0-0.2,0-0.3,0c-0.6,0-1.1,0-1.7,0c-0.1,0-0.1,0-0.2,0c0,0,0,0,0,0.1c0,0.1,0,0.1,0,0.2
			c0,0.6,0,1.1,0,1.7c0,0,0,0.1,0,0.1c0,0,0,0.1,0.1,0.1c0,0,0.1,0,0.1,0c0.2,0,0.5,0,0.7,0c0.1,0,0.1,0,0.2,0
			c0.3,0,0.5,0.2,0.5,0.5c0,0.3-0.2,0.5-0.5,0.5c-0.1,0-0.1,0-0.2,0c-0.2,0-0.4,0-0.6,0c-0.1,0-0.1,0-0.2,0c-0.1,0-0.1,0.1-0.1,0.1
			c0,0,0,0.1,0,0.1c0,0.5,0,1,0,1.5c0,0,0,0.1,0,0.1c0,0.1,0,0.1,0.1,0.1c0.1,0,0.2,0,0.3,0c1.5,0,2.9,0,4.4,0c0.1,0,0.2,0,0.3,0
			c0.1,0,0.2-0.1,0.2-0.2c0-0.1,0-0.3,0-0.4C19.7,48.3,19.7,44.4,19.7,40.4z M51.8,32.9c0.1,0.1,0.2,0.2,0.3,0.3
			c5.8,5.8,11.6,11.6,17.4,17.4c0.1,0.1,0.1,0.1,0.2,0.2c0.1,0.1,0.1,0.1,0.2,0c0,0,0.1-0.1,0.1-0.1c0.9-0.9,1.7-1.7,2.6-2.6
			c0,0,0.1-0.1,0.1-0.1c0,0,0-0.1,0-0.1c-0.1-0.1-0.2-0.2-0.3-0.3C66.7,41.8,60.9,36,55.1,30.2c-0.1-0.1-0.1-0.1-0.2-0.2
			c-0.1-0.1-0.1-0.1-0.2,0c-0.2,0.2-0.4,0.4-0.7,0.7c-0.1,0.1-0.3,0.2-0.3,0.4c0.1,0.2,0.2,0.3,0.3,0.4c5.2,5.2,10.5,10.5,15.7,15.7
			c0.1,0.1,0.2,0.2,0.3,0.3c0.1,0.1,0.1,0.2,0.1,0.4c0,0.3-0.4,0.6-0.7,0.5c-0.1,0-0.1-0.1-0.2-0.1c-0.1-0.1-0.2-0.2-0.3-0.3
			c-5.2-5.2-10.5-10.5-15.7-15.7c-0.1-0.1-0.2-0.2-0.3-0.3c0,0-0.1-0.1-0.1-0.1c0,0-0.1,0-0.1,0C52.7,32,52,32.7,51.8,32.9z
			 M30.7,64.4c-0.1,0.1-0.1,0.2-0.1,0.2c-0.7,1.3-1.4,2.7-2.1,4c0,0.1-0.1,0.1-0.1,0.2c0,0,0,0.1,0.1,0.1c0.1,0,0.2,0,0.4,0
			c5.8,0,11.6,0,17.3,0c0.1,0,0.2,0,0.3,0c0.1,0,0.1-0.1,0.1-0.2c0-0.1-0.1-0.1-0.1-0.2c-0.7-1.3-1.4-2.7-2.1-4
			c0-0.1-0.1-0.2-0.1-0.2c0,0-0.1,0-0.1,0c-4.4,0-8.8,0-13.2,0C30.8,64.4,30.7,64.4,30.7,64.4z M37.4,71.7c5.9,0,11.8,0,17.8,0
			c0.1,0,0.3,0,0.4,0c0,0,0.1,0,0.1,0c0,0,0.1,0,0.1-0.1c0,0,0-0.1,0-0.1c0-0.4,0-0.9,0-1.3c0,0,0-0.1,0-0.1c0,0,0-0.1-0.1-0.1
			c-0.1,0-0.3,0-0.4,0c-11.9,0-23.7,0-35.6,0c-0.1,0-0.2,0-0.4,0c0,0-0.1,0-0.1,0c0,0-0.1,0-0.1,0.1c0,0,0,0.1,0,0.1
			c0,0.4,0,0.9,0,1.3c0,0,0,0.1,0,0.1c0,0,0,0.1,0.1,0.1c0.1,0,0.3,0,0.4,0C25.6,71.7,31.5,71.7,37.4,71.7z M34.3,12.2
			c-0.1,0.1-0.1,0.2-0.2,0.3c-2.6,4.4-5.1,8.9-7.7,13.3c0,0.1-0.1,0.1-0.1,0.2c0,0,0,0.1,0,0.1c0,0,0,0,0,0c0.5,0.3,1,0.6,1.5,0.9
			c0,0,0,0,0,0c0,0,0.1,0,0.1,0c0.1-0.1,0.1-0.2,0.2-0.3c2.1-3.6,4.2-7.3,6.3-10.9c0.5-0.8,0.9-1.6,1.4-2.4c0-0.1,0.1-0.2,0.1-0.3
			c0,0-0.1-0.1-0.1-0.1C35.4,12.7,34.9,12.5,34.3,12.2C34.4,12.2,34.4,12.2,34.3,12.2z M54,29.2C54,29.2,54,29.2,54,29.2
			c-0.1-0.1-0.1-0.1-0.1-0.2c-0.4-0.4-0.9-0.9-1.3-1.3c-0.1-0.1-0.3-0.2-0.5-0.3c-1.3-0.5-2.7-1-4-1.4c-0.1,0-0.2-0.1-0.2-0.1
			c0,0-0.1,0-0.1,0.1c0,0.1,0.1,0.2,0.1,0.3c0.3,0.9,0.6,1.8,1,2.7c0.2,0.5,0.3,0.9,0.5,1.4c0,0.1,0.1,0.2,0.2,0.3
			c0.5,0.5,1,1,1.5,1.5c0,0,0,0,0,0c0,0,0.1,0,0.2,0c0.1-0.1,0.1-0.1,0.2-0.2c0.8-0.8,1.6-1.6,2.5-2.4C53.8,29.4,53.9,29.4,54,29.2
			C54,29.3,54,29.2,54,29.2z M75.1,50.3c-0.1,0-0.2,0.1-0.2,0.2c-0.8,0.8-1.7,1.7-2.5,2.5c-0.1,0.1-0.1,0.1-0.2,0.2c0,0,0,0.1,0,0.1
			c0.1,0.1,0.1,0.1,0.2,0.2c0.6,0.6,1.2,1.2,1.7,1.7c0.2,0.2,0.4,0.4,0.7,0.7c0.2,0.3,0.5,0.3,0.8,0c0.8-0.8,1.6-1.6,2.4-2.4
			c0,0,0-0.1,0.1-0.1c0,0,0-0.1,0-0.2c0,0-0.1-0.1-0.1-0.1c-0.3-0.3-0.5-0.5-0.8-0.8c-0.6-0.6-1.2-1.2-1.9-1.9
			C75.2,50.4,75.2,50.3,75.1,50.3z M40.6,12.3C40.6,12.3,40.6,12.3,40.6,12.3c-0.2-0.1-0.2-0.2-0.3-0.2c-1.7-1-3.4-2-5.1-3
			c-0.7-0.4-1.4-0.8-2.1-1.2c-0.1,0-0.1-0.1-0.2-0.1c0,0-0.1,0-0.1,0c0,0-0.1,0.1-0.1,0.1c-0.3,0.4-0.5,0.9-0.8,1.3
			c0,0,0,0.1-0.1,0.1c0,0,0,0.1,0,0.1c0.1,0.1,0.2,0.1,0.3,0.2c2.4,1.4,4.7,2.7,7.1,4.1c0.1,0.1,0.2,0.1,0.3,0.2c0,0,0.1,0,0.1,0
			C39.8,13.8,40.5,12.6,40.6,12.3z M41.1,11.4C41.1,11.4,41.2,11.4,41.1,11.4c0.3-0.5,0.6-1,0.9-1.5c0,0,0-0.1,0-0.1
			c-0.1-0.1-0.2-0.2-0.4-0.2c-2.4-1.4-4.7-2.7-7.1-4.1c-0.1,0-0.1-0.1-0.2-0.1c0,0-0.1,0-0.1-0.1c-0.1,0-0.1,0-0.2,0
			c-0.2,0.3-0.4,0.7-0.6,1c-0.1,0.2-0.2,0.3-0.3,0.5c0,0.1,0,0.1,0,0.2c0.1,0.1,0.2,0.1,0.3,0.2c1.5,0.9,3.1,1.8,4.6,2.7
			c0.9,0.5,1.7,1,2.6,1.5C40.9,11.3,41,11.4,41.1,11.4z M73.5,48.7c-0.1,0-0.1,0.1-0.1,0.1c-0.9,0.9-1.8,1.8-2.7,2.7
			c0,0,0,0.1-0.1,0.1c0,0,0,0.1,0,0.1c0.2,0.2,0.5,0.5,0.7,0.7c0,0,0.1,0,0.1,0c0,0,0.1-0.1,0.1-0.1c0.9-0.9,1.8-1.8,2.7-2.7
			c0.1-0.1,0.1-0.1,0.1-0.2c0,0-0.1-0.1-0.1-0.1C74,49.2,73.8,48.9,73.5,48.7z"/>
		<path id="XMLID_160_" d="M2.3,17.5c0,0,0.1-0.1,0.1-0.1c0-0.1,0-0.1,0-0.2c0.2-1.6,1.4-3.2,3.4-3.6c0.3-0.1,0.6-0.1,1-0.1
			c1.5,0,3.1,0,4.6,0c1.6,0,3.2,0,4.8,0c0.1,0,0.2,0,0.3,0c0.3,0,0.5,0.3,0.5,0.6c0,0.2-0.2,0.3-0.4,0.4c-0.1,0-0.2,0-0.4,0
			c-3.1,0-6.1,0-9.2,0c-0.1,0-0.2,0-0.4,0c-1.5,0-2.6,0.9-3,2.1c-0.2,0.4-0.2,0.8-0.2,1.2c0,0.1,0,0.3,0,0.4c0,5.4,0,10.9,0,16.3
			c0,0.1,0,0.3,0,0.4c0,0.2-0.1,0.3-0.3,0.4c-0.2,0.1-0.4,0-0.5-0.1c0,0-0.1-0.1-0.1-0.1c0,0-0.1-0.1-0.1-0.1
			C2.3,29.1,2.3,23.3,2.3,17.5z"/>
		<path id="XMLID_155_" d="M72.4,21.3c0,1.2,0,2.3,0,3.5c0,0.1,0,0.2,0,0.3c0,0.2-0.2,0.4-0.4,0.4c-0.1,0.1-0.4,0-0.5-0.2
			c-0.1-0.1-0.1-0.2-0.1-0.3c0-0.1,0-0.2,0-0.3c0-2.2,0-4.4,0-6.5c0-0.1,0-0.3,0-0.4c0-1.4-1-2.8-2.6-3.2c-0.2-0.1-0.5-0.1-0.8-0.1
			c-0.1,0-0.2,0-0.3-0.1c-0.2-0.1-0.2-0.3-0.2-0.5c0-0.2,0.2-0.4,0.4-0.4c0.1,0,0.2,0,0.4,0c0.7,0.1,1.3,0.2,1.8,0.6
			c1.1,0.6,1.8,1.6,2.1,2.8c0.1,0.3,0.1,0.6,0.1,0.9C72.4,19,72.4,20.1,72.4,21.3z"/>
		<path id="XMLID_134_" d="M38,41.1c0-0.4,0-0.9,0-1.3c0-0.1,0-0.2,0-0.3c0.1-0.4,0.5-0.5,0.8-0.3c0.1,0.1,0.2,0.2,0.3,0.2
			c1.2,1.1,2.3,2.3,3.5,3.4c0.4,0.4,0.7,0.7,1.1,1.1c0.1,0.1,0.1,0.1,0.2,0.2c0.2,0.2,0.2,0.5,0,0.7c-0.1,0.1-0.1,0.1-0.2,0.2
			c-1.6,1.5-3.1,3-4.7,4.5c-0.1,0.1-0.1,0.1-0.2,0.2c-0.2,0.1-0.3,0.1-0.5,0c-0.1-0.1-0.2-0.2-0.3-0.3c0-0.1,0-0.2,0-0.4
			c0-0.6,0-1.3,0-1.9c0-0.5,0-0.4-0.4-0.5c-2.5-0.2-4.8-1.1-6.7-2.7c-1.9-1.6-3.2-3.6-3.9-6.1c-0.2-0.5-0.3-1.1-0.3-1.7
			c-0.1-0.4-0.1-0.8-0.1-1.3c0-0.1,0-0.2,0-0.3c0-0.2,0.2-0.4,0.5-0.4c0.2,0,0.4,0.1,0.5,0.3c0,0.1,0,0.2,0,0.2c0,0.1,0,0.3,0,0.4
			c0.1,2.5,0.9,4.6,2.5,6.5c1.4,1.7,3.2,2.9,5.3,3.5c0.5,0.2,1,0.3,1.6,0.3c0.3,0,0.6,0.1,0.9,0.1c0.1,0,0.2,0,0.2-0.2
			c0-0.5,0-1.1,0-1.6c0,0,0-0.1,0-0.1c0,0,0,0-0.1,0c0,0-0.1,0-0.1,0c-0.5,0-0.9-0.1-1.4-0.2c-1.4-0.3-2.6-0.9-3.7-1.8
			c-1.4-1.2-2.4-2.7-3-4.5c-0.1-0.5-0.2-0.9-0.3-1.4c0-0.3-0.1-0.7-0.1-1c0-0.1,0-0.2,0.1-0.3c0.1-0.1,0.3-0.2,0.5-0.2
			c0.2,0.1,0.3,0.2,0.4,0.4c0,0.1,0,0.1,0,0.2c0.1,2.2,0.9,4.1,2.4,5.6c1.1,1.1,2.5,1.8,4,2.1c0.2,0,0.4,0.1,0.7,0.1
			c0.1,0,0.2,0,0.3,0c0,0,0.1,0,0.1-0.1c0-0.1,0-0.2,0-0.3C38,42,38,41.6,38,41.1C38,41.1,38,41.1,38,41.1z M42.7,44.5
			c-0.1-0.1-0.1-0.1-0.1-0.2c-1.1-1.1-2.3-2.2-3.4-3.3c0,0-0.1-0.1-0.1-0.1c0,0,0,0,0,0c0,0,0,0,0,0c0,0.1,0,0.2,0,0.3
			c0,2.2,0,4.3,0,6.5c0,0.1,0,0.2,0,0.3c0,0,0,0,0,0c0,0,0,0,0.1,0c0,0,0.1-0.1,0.1-0.1c1.1-1.1,2.2-2.2,3.3-3.2
			C42.6,44.6,42.7,44.5,42.7,44.5z"/>
		<path id="XMLID_131_" d="M36.8,27.4c0.2,0,0.3,0,0.5,0.1c0.8,0.1,1.6,0.2,2.4,0.4c3.7,1.1,6.8,4.1,8,7.8c0.2,0.7,0.4,1.5,0.5,2.2
			c0,0.4,0.1,0.8,0.1,1.3c0,0.1,0,0.1,0,0.2c0,0.3-0.2,0.5-0.4,0.5c-0.3,0-0.5-0.1-0.6-0.4c0-0.1,0-0.2,0-0.3
			c-0.1-4.8-3.2-8.7-7.4-10.2c-0.6-0.2-1.3-0.4-2-0.5c-0.3,0-0.6-0.1-0.9-0.1c0,0-0.1,0-0.1,0c0,0,0,0,0,0c0,0,0,0.1,0,0.1
			c0,0.5,0,1.1,0,1.6c0,0,0,0.1,0,0.1c0,0,0,0.1,0.1,0.1c0,0,0.1,0,0.1,0c0.3,0,0.7,0.1,1,0.1c1.4,0.3,2.7,0.9,3.9,1.8
			c1.6,1.3,2.6,2.9,3.1,4.8c0.2,0.7,0.3,1.4,0.3,2.1c0,0.1,0,0.2,0,0.3c0,0.2-0.2,0.4-0.5,0.4c-0.2,0-0.4-0.2-0.5-0.4
			c0-0.1,0-0.1,0-0.2c0-0.1,0-0.3,0-0.4c0-0.9-0.3-1.8-0.6-2.7c-0.9-2.2-2.9-4-5.6-4.7c-0.3-0.1-0.6-0.1-1-0.2c-0.1,0-0.2,0-0.3,0
			c0,0-0.1,0-0.1,0.1c0,0.1,0,0.2,0,0.3c0,0.8,0,1.7,0,2.5c0,0.1,0,0.2,0,0.3c0,0.2-0.1,0.3-0.3,0.4C36.3,35,36.1,35,36,34.9
			c-0.1,0-0.1-0.1-0.2-0.1c-1.6-1.5-3.2-3.1-4.8-4.6C31,30.1,30.9,30,30.9,30c-0.2-0.2-0.2-0.5,0-0.7c0.1-0.1,0.1-0.1,0.2-0.2
			c0.8-0.8,1.6-1.5,2.3-2.3c0.8-0.7,1.5-1.5,2.3-2.2c0.1-0.1,0.1-0.1,0.2-0.2c0.2-0.1,0.3-0.2,0.5-0.1c0.2,0.1,0.3,0.2,0.3,0.4
			c0,0.1,0,0.2,0,0.3c0,0.7,0,1.4,0,2.1C36.8,27.2,36.7,27.3,36.8,27.4z M35.8,29.7c0-1.1,0-2.1,0-3.2c0-0.1,0-0.2,0-0.3
			c0,0,0,0,0,0c0,0-0.1,0-0.1,0c-0.1,0-0.1,0.1-0.2,0.1c-1.1,1.1-2.2,2.1-3.3,3.2c0,0-0.1,0.1-0.1,0.1c0,0,0,0,0,0.1
			c0,0,0,0.1,0,0.1c0.1,0.1,0.2,0.2,0.2,0.2c1,1,2.1,2,3.1,3c0.1,0.1,0.2,0.2,0.3,0.2c0,0,0,0,0,0c0,0,0,0,0,0c0-0.1,0-0.2,0-0.3
			C35.8,31.8,35.8,30.7,35.8,29.7z"/>
		<path id="XMLID_128_" d="M37.4,62.1c-1,0-1.8-0.7-1.8-1.8c0-1,0.8-1.8,1.8-1.8c1.1,0,1.8,0.9,1.8,1.8
			C39.2,61.3,38.5,62.1,37.4,62.1z M38.2,60.3c0-0.3-0.3-0.8-0.8-0.8c-0.5,0-0.8,0.4-0.8,0.8c0,0.4,0.3,0.8,0.8,0.8
			C37.9,61.1,38.2,60.7,38.2,60.3z"/>
	</g>
</g>
<g id="Layer_2">
	<g id="Layer_x5F_1">
		<g id="_402998288">
			<g id="XMLID_40_">
				<path id="_403000112" class="st2" d="M70.7,62H55.1c-0.4,0-0.7-0.3-0.7-0.7c0-0.4,0.3-0.7,0.7-0.7H70V19.5
					c0-0.4,0.3-0.7,0.7-0.7c0.4,0,0.7,0.3,0.7,0.7v41.8C71.4,61.7,71.1,62,70.7,62L70.7,62z M25.4,62H9.9c-0.4,0-0.7-0.3-0.7-0.7
					V19.5c0-0.4,0.3-0.7,0.7-0.7c0.4,0,0.7,0.3,0.7,0.7v41.1h14.8c0.4,0,0.7,0.3,0.7,0.7C26.2,61.7,25.8,62,25.4,62L25.4,62z"/>
			</g>
			<g id="XMLID_37_">
				<path id="_402999272" class="st2" d="M70.7,20.2H9.9c-0.4,0-0.7-0.3-0.7-0.7V8.3c0-0.4,0.3-0.7,0.7-0.7h60.8
					c0.4,0,0.7,0.3,0.7,0.7v11.2C71.4,19.9,71.1,20.2,70.7,20.2z M10.6,18.7H70V9H10.6V18.7z"/>
			</g>
			<g id="XMLID_36_">
				<path id="_402999800" class="st2" d="M70.7,14.6H45.3c-0.4,0-0.7-0.3-0.7-0.7V8.3c0-0.4,0.3-0.7,0.7-0.7c0.4,0,0.7,0.3,0.7,0.7
					v4.9h24.6c0.4,0,0.7,0.3,0.7,0.7C71.4,14.3,71.1,14.6,70.7,14.6L70.7,14.6z"/>
			</g>
			<g id="XMLID_35_">
				<path id="_402999536" class="st2" d="M18,14.6h-3.8c-0.4,0-0.7-0.3-0.7-0.7c0-0.4,0.3-0.7,0.7-0.7H18c0.4,0,0.7,0.3,0.7,0.7
					C18.8,14.3,18.4,14.6,18,14.6z"/>
			</g>
			<g id="XMLID_34_">
				<path id="_402999224" class="st2" d="M26,14.6h-3.8c-0.4,0-0.7-0.3-0.7-0.7c0-0.4,0.3-0.7,0.7-0.7H26c0.4,0,0.7,0.3,0.7,0.7
					C26.8,14.3,26.4,14.6,26,14.6L26,14.6z"/>
			</g>
			<g id="XMLID_33_">
				<path id="_402999584" class="st2" d="M34.1,14.6h-3.8c-0.4,0-0.7-0.3-0.7-0.7c0-0.4,0.3-0.7,0.7-0.7h3.8c0.4,0,0.7,0.3,0.7,0.7
					C34.8,14.3,34.5,14.6,34.1,14.6z"/>
			</g>
			<g id="XMLID_32_">
				<path id="_402999512" class="st2" d="M5.9,62c-0.4,0-0.7-0.3-0.7-0.7V47.9c0-0.4,0.3-0.7,0.7-0.7c0.4,0,0.7,0.3,0.7,0.7v13.4
					C6.6,61.7,6.3,62,5.9,62z"/>
			</g>
			<g id="XMLID_31_">
				<path id="_402999416" class="st2" d="M74.7,22.4c-0.4,0-0.7-0.3-0.7-0.7V8.3c0-0.4,0.3-0.7,0.7-0.7c0.4,0,0.7,0.3,0.7,0.7v13.4
					C75.4,22,75.1,22.4,74.7,22.4z"/>
			</g>
			<g id="XMLID_30_">
				<path id="_402999872" class="st2" d="M53.1,25.1H27.5c-0.4,0-0.7-0.3-0.7-0.7c0-0.4,0.3-0.7,0.7-0.7h25.6c0.4,0,0.7,0.3,0.7,0.7
					C53.8,24.8,53.5,25.1,53.1,25.1z"/>
			</g>
			<g id="XMLID_27_">
				<path id="_402998768" class="st2" d="M40.3,75.1c-8.7,0-15.7-7-15.7-15.7c0-8.7,7-15.7,15.7-15.7c8.7,0,15.7,7,15.7,15.7
					S48.9,75.1,40.3,75.1z M40.3,45.2c-7.8,0-14.2,6.4-14.2,14.2s6.4,14.2,14.2,14.2s14.2-6.4,14.2-14.2S48.1,45.2,40.3,45.2
					L40.3,45.2z"/>
			</g>
			<g id="XMLID_24_">
				<path id="_402998576" class="st2" d="M41.7,70.5h-2.8c-0.8,0-1.5-0.7-1.5-1.5v-2.3c-0.7-0.3-1.4-0.7-2-1.1l-2,1.2
					c-0.2,0.1-0.5,0.2-0.7,0.2c-0.5,0-1-0.3-1.3-0.8L30,63.8c-0.4-0.7-0.2-1.6,0.5-2l2-1.2c-0.1-0.4-0.1-0.8-0.1-1.1
					c0-0.4,0-0.8,0.1-1.1l-2-1.2c-0.7-0.4-1-1.3-0.5-2l1.4-2.4c0.3-0.5,0.8-0.7,1.3-0.7c0.3,0,0.5,0.1,0.7,0.2l2,1.2
					c0.6-0.5,1.3-0.9,2-1.1v-2.3c0-0.8,0.7-1.5,1.5-1.5h2.8c0.8,0,1.5,0.7,1.5,1.5v2.3c0.7,0.3,1.4,0.7,2,1.1l2-1.2
					c0.2-0.1,0.5-0.2,0.7-0.2c0.5,0,1,0.3,1.3,0.7l1.4,2.4c0.4,0.7,0.2,1.6-0.5,2l-2,1.2c0.1,0.4,0.1,0.8,0.1,1.1
					c0,0.4,0,0.8-0.1,1.1l2,1.2c0.7,0.4,1,1.3,0.5,2l-1.4,2.4c-0.3,0.5-0.8,0.7-1.3,0.7c-0.3,0-0.5-0.1-0.7-0.2l-2-1.2
					c-0.6,0.5-1.3,0.9-2,1.1V69C43.2,69.8,42.5,70.5,41.7,70.5L41.7,70.5z M35.5,63.9c0.2,0,0.4,0.1,0.5,0.2
					c0.7,0.6,1.5,1.1,2.3,1.4c0.3,0.1,0.5,0.4,0.5,0.7V69c0,0,0,0,0,0h2.8c0,0,0,0,0,0v-2.8c0-0.3,0.2-0.6,0.5-0.7
					c0.9-0.3,1.7-0.7,2.3-1.4c0.2-0.2,0.6-0.3,0.9-0.1l2.4,1.4c0,0,0,0,0,0l1.4-2.4c0,0,0,0,0,0l-2.4-1.4c-0.3-0.2-0.4-0.5-0.3-0.8
					c0.1-0.4,0.1-0.9,0.1-1.4c0-0.5,0-0.9-0.1-1.4c-0.1-0.3,0.1-0.6,0.3-0.8l2.4-1.4c0,0,0,0,0,0l-1.4-2.4c0,0,0,0,0,0l-2.5,1.4
					c-0.3,0.2-0.6,0.1-0.9-0.1c-0.7-0.6-1.5-1.1-2.3-1.4c-0.3-0.1-0.5-0.4-0.5-0.7v-2.8c0,0,0,0,0,0h-2.8c0,0,0,0,0,0v2.8
					c0,0.3-0.2,0.6-0.5,0.7c-0.9,0.3-1.7,0.7-2.3,1.4c-0.2,0.2-0.6,0.3-0.9,0.1l-2.4-1.4c0,0,0,0,0,0l-1.4,2.4c0,0,0,0,0,0l2.4,1.4
					c0.3,0.2,0.4,0.5,0.3,0.8c-0.1,0.4-0.1,0.9-0.1,1.4c0,0.5,0,0.9,0.1,1.4c0.1,0.3-0.1,0.6-0.3,0.8L31.3,63c0,0,0,0,0,0l1.4,2.4
					c0,0,0,0,0,0l2.5-1.4C35.3,64,35.4,63.9,35.5,63.9L35.5,63.9z"/>
			</g>
			<g id="XMLID_21_">
				<path id="_402998528" class="st2" d="M40.3,63.6c-2.3,0-4.2-1.9-4.2-4.2c0-2.3,1.9-4.2,4.2-4.2c2.3,0,4.2,1.9,4.2,4.2
					C44.5,61.8,42.6,63.6,40.3,63.6z M40.3,56.7c-1.5,0-2.7,1.2-2.7,2.7s1.2,2.7,2.7,2.7c1.5,0,2.7-1.2,2.7-2.7S41.8,56.7,40.3,56.7
					z"/>
			</g>
			<g id="XMLID_20_">
				<path id="_402999008" class="st2" d="M64.7,29.1h-23c-0.4,0-0.7-0.3-0.7-0.7c0-0.4,0.3-0.7,0.7-0.7h23c0.4,0,0.7,0.3,0.7,0.7
					C65.4,28.8,65.1,29.1,64.7,29.1L64.7,29.1z"/>
			</g>
			<g id="XMLID_19_">
				<path id="_402998480" class="st2" d="M64.7,33.8h-23c-0.4,0-0.7-0.3-0.7-0.7c0-0.4,0.3-0.7,0.7-0.7h23c0.4,0,0.7,0.3,0.7,0.7
					C65.4,33.5,65.1,33.8,64.7,33.8L64.7,33.8z"/>
			</g>
			<g id="XMLID_18_">
				<path id="_402998984" class="st2" d="M64.7,38.5h-23c-0.4,0-0.7-0.3-0.7-0.7c0-0.4,0.3-0.7,0.7-0.7h23c0.4,0,0.7,0.3,0.7,0.7
					C65.4,38.2,65.1,38.5,64.7,38.5L64.7,38.5z"/>
			</g>
			<g id="XMLID_17_">
				<path id="_402998888" class="st2" d="M24,38c-0.1,0-0.2,0-0.4-0.1c-0.4-0.2-0.5-0.7-0.3-1l4.7-8.1c0.2-0.4,0.7-0.5,1-0.3
					c0.4,0.2,0.5,0.7,0.3,1l-4.7,8.1C24.5,37.8,24.2,38,24,38L24,38z"/>
			</g>
			<g id="XMLID_16_">
				<path id="_402998936" class="st2" d="M17.4,38.2h-1.5c-0.4,0-0.7-0.3-0.7-0.7v-9.1c0-0.4,0.3-0.7,0.7-0.7h1.5
					c0.4,0,0.7,0.3,0.7,0.7c0,0.4-0.3,0.7-0.7,0.7h-0.8v7.7h0.8c0.4,0,0.7,0.3,0.7,0.7C18.2,37.9,17.8,38.2,17.4,38.2L17.4,38.2z"/>
			</g>
			<g id="XMLID_15_">
				<path id="_402997808" class="st2" d="M22.2,36.6c-0.2,0-0.4-0.1-0.5-0.2l-2.9-2.9c-0.3-0.3-0.3-0.8,0-1l2.9-2.9
					c0.3-0.3,0.8-0.3,1,0c0.3,0.3,0.3,0.8,0,1l-2.4,2.4l2.4,2.4c0.3,0.3,0.3,0.8,0,1C22.5,36.5,22.3,36.6,22.2,36.6L22.2,36.6z"/>
			</g>
			<g id="XMLID_14_">
				<path id="_402997688" class="st2" d="M36.7,38.5h-1.5c-0.4,0-0.7-0.3-0.7-0.7c0-0.4,0.3-0.7,0.7-0.7H36v-7.7h-0.8
					c-0.4,0-0.7-0.3-0.7-0.7c0-0.4,0.3-0.7,0.7-0.7h1.5c0.4,0,0.7,0.3,0.7,0.7v9.1C37.4,38.2,37.1,38.5,36.7,38.5L36.7,38.5z"/>
			</g>
			<g id="XMLID_13_">
				<path id="_402998192" class="st2" d="M30.5,37.1c-0.2,0-0.4-0.1-0.5-0.2c-0.3-0.3-0.3-0.8,0-1l2.4-2.4L30,31
					c-0.3-0.3-0.3-0.8,0-1c0.3-0.3,0.8-0.3,1,0l2.9,2.9c0.3,0.3,0.3,0.8,0,1L31,36.9C30.8,37,30.7,37.1,30.5,37.1L30.5,37.1z"/>
			</g>
		</g>
	</g>
</g>
</svg>
